<svg width="20" height="20" viewBox="0 0 20 20" fill="none" xmlns="http://www.w3.org/2000/svg">
<path d="M13.9955 6.48438L17.2656 3.21429L16.0714 2.02009L12.8013 5.29018L13.9955 6.48438ZM18.9844 3.21429C18.9844 3.41518 18.9174 3.58259 18.7835 3.71652L4.4308 18.0692C4.29688 18.2031 4.12946 18.2701 3.92857 18.2701C3.72768 18.2701 3.56027 18.2031 3.42634 18.0692L1.21652 15.8594C1.08259 15.7254 1.01562 15.558 1.01562 15.3571C1.01562 15.1562 1.08259 14.9888 1.21652 14.8549L15.5692 0.502232C15.7031 0.368304 15.8705 0.301339 16.0714 0.301339C16.2723 0.301339 16.4397 0.368304 16.5737 0.502232L18.7835 2.71205C18.9174 2.84598 18.9844 3.01339 18.9844 3.21429ZM3.90625 1.09375L5 1.42857L3.90625 1.76339L3.57143 2.85714L3.23661 1.76339L2.14286 1.42857L3.23661 1.09375L3.57143 0L3.90625 1.09375ZM7.8125 2.90179L10 3.57143L7.8125 4.24107L7.14286 6.42857L6.47321 4.24107L4.28571 3.57143L6.47321 2.90179L7.14286 0.714286L7.8125 2.90179ZM18.192 8.23661L19.2857 8.57143L18.192 8.90625L17.8571 10L17.5223 8.90625L16.4286 8.57143L17.5223 8.23661L17.8571 7.14286L18.192 8.23661ZM11.0491 1.09375L12.1429 1.42857L11.0491 1.76339L10.7143 2.85714L10.3795 1.76339L9.28571 1.42857L10.3795 1.09375L10.7143 0L11.0491 1.09375Z" fill="white"/>
</svg>
