<svg width="26" height="25" viewBox="0 0 26 25" fill="none" xmlns="http://www.w3.org/2000/svg">
<path d="M15.7398 21.7085L25.1509 20.0615C25.1509 20.0615 24.9727 20.8894 24.8087 21.409C24.6399 21.9437 24.2953 22.7565 24.2953 22.7565L14.8843 24.4034C14.8843 24.4034 15.0625 23.5756 15.2265 23.0559C15.3953 22.5213 15.7398 21.7085 15.7398 21.7085Z" fill="black"/>
<path d="M15.7398 16.6176L25.1509 14.9707L24.2953 17.6657L14.8843 19.3126L15.7398 16.6176Z" fill="black"/>
<path d="M2.3951 13.6246L25.1527 9.43237C25.1527 9.43237 24.9745 10.2603 24.8105 10.7799C24.6418 11.3145 24.2972 12.1274 24.2972 12.1274L1.53955 16.3196C1.53955 16.3196 1.69003 15.3945 1.88177 14.8223C2.04241 14.343 2.3951 13.6246 2.3951 13.6246Z" fill="black"/>
<path d="M14.7139 19.3118L14.885 3.59103C14.885 3.59103 15.4685 2.91747 15.9116 2.54299C16.5654 1.99052 17.7938 1.34521 17.7938 1.34521V16.0179L25.3227 14.6704C25.3227 14.6704 25.1884 15.6895 24.9805 16.3173C24.7802 16.9222 24.296 17.8146 24.296 17.8146L14.7139 19.3118Z" fill="black"/>
<path d="M8.64014 18.5654V2.22785C8.64014 2.22785 9.18932 1.55967 9.60641 1.18819C10.2217 0.640139 11.3779 0 11.3779 0L11.2923 17.6671L8.64014 18.5654Z" fill="black"/>
<path d="M0.82924 19.8932L8.62409 18.4253L10.946 15.196C10.9225 15.4876 11.3983 17.6888 11.2933 17.9659C11.099 18.4786 10.8075 18.8685 10.4484 19.306C9.88263 19.9956 9.12164 20.7739 8.78994 20.9207C8.45825 21.0675 0 22.6821 0 22.6821C0 22.6821 0.178425 21.809 0.34222 21.2598C0.50353 20.7188 0.82924 19.8932 0.82924 19.8932Z" fill="black"/>
</svg>
