<svg xmlns="http://www.w3.org/2000/svg" width="181" height="30" viewBox="0 0 181 30" fill="none"><path d="M4.34354 0H0V30H22.6668V25.6647H4.34354V0Z" fill="#030028"></path><path d="M73.5815 4.81021H71.4093H56.8407V30H61.1852V9.14547H71.4093V30H75.7528V9.14547H85.9778V30H90.3214V4.81021H88.1501H73.5815Z" fill="#030028"></path><path d="M46.9738 7.90944C44.7562 5.98169 41.8618 4.81021 38.6961 4.81021C31.7362 4.81021 26.0748 10.4605 26.0748 17.4046C26.0748 24.3487 31.7371 29.999 38.6961 29.999C41.8618 29.999 44.7562 28.8276 46.9738 26.8998V29.999H51.3173V4.81021H46.9738V7.90944ZM38.6961 25.6647C34.1314 25.6647 30.4183 21.9595 30.4183 17.4046C30.4183 12.8497 34.1314 9.14451 38.6961 9.14451C43.2607 9.14451 46.9738 12.8497 46.9738 17.4046C46.9738 21.9595 43.2607 25.6647 38.6961 25.6647Z" fill="#030028"></path><path d="M147.511 4.81021V7.90944C145.293 5.98169 142.399 4.81021 139.233 4.81021C132.273 4.81021 126.612 10.4605 126.612 17.4046C126.612 24.3487 132.273 29.999 139.233 29.999C142.399 29.999 145.293 28.8276 147.511 26.8998V29.999H151.854V4.81021H147.511ZM139.233 25.6647C134.668 25.6647 130.955 21.9595 130.955 17.4046C130.955 12.8497 134.668 9.14451 139.233 9.14451C143.797 9.14451 147.511 12.8497 147.511 17.4046C147.511 21.9595 143.797 25.6647 139.233 25.6647Z" fill="#030028"></path><path d="M116.745 7.90944C114.527 5.9817 111.633 4.81021 108.467 4.81021C101.507 4.81021 95.8457 10.4605 95.8457 17.4046C95.8457 24.3487 101.507 29.999 108.467 29.999C111.633 29.999 114.527 28.8276 116.745 26.8998V29.999H121.088V0H116.745V7.90944ZM108.467 25.6647C103.902 25.6647 100.189 21.9595 100.189 17.4046C100.189 12.8497 103.902 9.14451 108.467 9.14451C113.032 9.14451 116.745 12.8497 116.745 17.4046C116.745 21.9595 113.032 25.6647 108.467 25.6647Z" fill="#030028"></path><path d="M180.999 9.14643V4.81021H171.53V12.4605L167.4 4.81021H162.466L167.259 13.6869H167.257C167.825 14.8054 168.147 16.0684 168.147 17.4056C168.147 21.9605 164.434 25.6657 159.869 25.6657H157.378V30H159.875C165.26 29.9981 169.866 26.6108 171.673 21.8603L176.067 29.999H181L172.492 14.2389V9.14643H181H180.999Z" fill="#4A28F0"></path></svg>